<svg xmlns="http://www.w3.org/2000/svg" fill="none" viewBox="0 0 79 79" class="~w-32/48">
    <path fill="#111" stroke="#262626" stroke-width="3"
        d="M68.098 14.478C61.137 6.526 50.904 1.5 39.499 1.5 18.513 1.5 1.5 18.512 1.5 39.5s17.014 38 38 38c11.407 0 21.641-5.027 28.604-12.984a37.13 37.13 0 0 0 2.234-2.81A37.824 37.824 0 0 0 77.5 39.5a37.83 37.83 0 0 0-7.155-22.196 37.93 37.93 0 0 0-2.247-2.826Zm0 0-1.129.988 1.128-.988Z"></path>
    <mask id="a" width="73" height="73" x="3" y="3" maskUnits="userSpaceOnUse"
        style="mask-type: alpha;">
        <path fill="#7DE5FA"
            d="M76 39.5c0 7.962-2.55 15.33-6.878 21.33a35.655 35.655 0 0 1-2.146 2.697C60.286 71.173 50.457 76 39.499 76 19.342 76 3 59.66 3 39.5S19.342 3 39.5 3c10.954 0 20.78 4.825 27.469 12.466a36.67 36.67 0 0 1 2.16 2.715A36.33 36.33 0 0 1 76 39.5Z"></path>
    </mask>
    <g mask="url(#a)">
        <path fill="#fff"
            d="M75.993 61.25c-.71.952-1.468 1.87-2.27 2.75a55.535 55.535 0 0 0-3.194-3.8c-1.967-2.135-4.047-4.083-6.496-5.499-1.232-.713-1.99-1.065-3.364-1.38-.22-.049-.443-.092-.667-.128l-.088-.014-.005-.001c-.027 0-.059-.004-.102-.007-.468-.04-.938-.069-1.41-.083-.8-.02-1.697-.003-2.437.088a12.77 12.77 0 0 0-2.147.479c-.753.236-.872.293-1.555.635-1.099.549-2.115 1.232-3.142 1.89-2.584 1.66-5.29 2.803-8.391 3.184-5.715.705-12.119-.344-16.504-4.156-5.13-4.46-6.872-12.28-6.01-18.642.81-5.994 3.4-12.005 9.222-14.94 2.55-1.286 5.364-1.892 8.22-2.09 3.404-.238 6.857.073 10.005 1.4 2.367.996 4.32 2.642 6.6 3.781.672.338.824.405 1.555.635a12.27 12.27 0 0 0 2.164.484c1.392.172 3.443.115 4.525-.113 1.391-.295 2.166-.644 3.369-1.323 1.278-.72 2.22-1.42 3.283-2.32 2.2-1.87 4.3-4.187 5.968-6.313.2-.254.399-.51.594-.767.807.887 1.569 1.81 2.284 2.768a63.102 63.102 0 0 1-2.54 3.011c-2.016 2.245-4.255 4.343-6.823 5.997-2.592 1.672-5.384 2.537-8.504 2.581-3.14.045-6.103-.705-8.78-2.284-1.055-.62-2.056-1.324-3.106-1.953-1.167-.7-2.18-1.192-3.355-1.547-1.593-.482-3.218-.654-4.882-.671-1.31-.014-2.974.08-3.953.235a18.851 18.851 0 0 0-3.945 1.043l-.016.005h-.002s-.009.006-.014.007c-.075.033-.15.065-.224.1l-.316.144a15.578 15.578 0 0 0-1.651.921c-.086.057-.461.32-.515.352a.023.023 0 0 0-.005.003c-2.132 1.61-3.518 3.712-4.405 6.118-1.226 3.322-1.716 6.913-1.223 10.409.426 3.013 1.276 5.88 3.023 8.375.6.858 1.496 1.814 2.507 2.607l.06.046a.087.087 0 0 0 .024.017.13.13 0 0 0 .005.005c.004.004.01.005.014.01.075.054.154.109.23.16.094.064.189.129.285.19a13.94 13.94 0 0 0 1.652.921c.081.04.526.234.57.258 4.995 2.003 11.445 1.85 16.063-.897 2.254-1.338 4.306-2.874 6.874-3.641 2.972-.886 6.601-.968 9.564.002 5.605 1.834 9.885 6.52 13.38 10.957Z"></path>
    </g>
</svg>